<?xml version="1.0" encoding="UTF-8" standalone="no"?>
<svg width="106px" height="65px" viewBox="0 0 106 65" version="1.1" xmlns="http://www.w3.org/2000/svg" xmlns:xlink="http://www.w3.org/1999/xlink">
    <!-- Generator: sketchtool 42 (36780) - http://www.bohemiancoding.com/sketch -->
    <title>Low Cost icon</title>
    <desc>Created with sketchtool.</desc>
    <defs></defs>
    <g id="Landing-Page" stroke="none" stroke-width="1" fill="none" fill-rule="evenodd">
        <g id="Pro-Homepage-(Desktop-HD)" transform="translate(-1022.000000, -778.000000)">
            <g id="How-it-works" transform="translate(0.000000, 591.000000)">
                <g id="More-connections" transform="translate(939.000000, 163.000000)">
                    <g id="P.B.-icon-2" transform="translate(81.000000, 0.000000)">
                        <g id="P.B.-icon" transform="translate(2.000000, 25.000000)">
                            <polyline id="Page-1" stroke="#FFFFFF" stroke-width="2" stroke-linecap="round" stroke-linejoin="round" points="43.490433 27.9583344 50.0171917 34.1861472 61.289066 18.1717713"></polyline>
                            <g id="Page-1-Copy-3" transform="translate(80.441899, 17.284271)" fill="#DEDFE0">
                                <path d="M16.6909635,20.595586 C16.314905,22.1150307 16.9803583,23.3824726 17.4838331,23.4599304 C20.5624577,23.9347569 22.7285343,25.0059018 24.2178086,26.3263969 C24.9585769,26.983196 24.6402941,28.2257029 23.6818349,28.4262441 C21.438896,28.8952348 17.413161,29.5424843 12.2736943,29.5424843 C7.04550052,29.5424843 3.12603172,28.9132729 0.93622584,28.4464044 C-0.0237809307,28.2416189 -0.330714852,26.9890319 0.419338798,26.3396602 C1.92099367,25.0387948 4.07159454,23.9862185 7.05942861,23.4599304 C7.56548269,23.3713315 8.27633134,22.070466 7.84662385,20.595586" id="Fill-1"></path>
                                <path d="M19.8828183,8.98398255 C20.2258621,5.86710472 18.4002501,3.61021991 15.9169226,2.70354004 C14.9202901,2.33906428 10.7815828,1.60215478 9.23969117,0.0657329639 C8.6815357,-0.489734455 9.0637845,2.64146775 8.55876213,2.874902 C5.91500356,4.09777918 4.02026693,6.02202018 4.81571585,9.40416421 C4.91940277,9.84715876 5.26708927,9.89066242 5.62612458,10.8753305 C5.37387132,11.1374135 4.8683331,11.5326602 4.8683331,12.135345 C4.8683331,13.0526355 5.09479359,14.9084378 6.10793346,15.4320733 C6.19975571,17.4480964 7.84688178,20.5957451 7.84688178,20.5957451 C9.63741563,22.2610863 10.91261,22.9868546 11.5847695,22.9868546 C11.6141733,22.9868546 11.9045998,22.8112484 12.3564891,22.8112484 C12.8233382,22.8112484 13.1421367,22.9868546 13.1705088,22.9868546 C13.4181193,22.9868546 15.3726952,21.9958201 16.6907056,20.5957451 C16.6907056,20.5957451 18.3450536,17.4480964 18.43636,15.4320733 C19.4531109,14.8644036 19.6764762,13.0526355 19.6764762,12.135345 C19.6764762,11.5326602 19.1704221,11.1374135 18.9181689,10.8753305 C18.9800715,10.5315456 19.3452971,10.7968117 19.3452971,10.7968117 C19.4030729,10.4673511 19.7538545,10.1559286 19.8828183,8.98398255 Z" id="Fill-4"></path>
                            </g>
                            <g id="Page-1" transform="translate(57.458499, 12.083694)" fill="#C1C2C3">
                                <path d="M22.5328007,27.759268 C22.0251217,29.8072153 22.9234837,31.5155066 23.6031747,31.6199061 C27.759318,32.2598897 30.6835213,33.7036067 32.6940416,35.4834045 C33.6940788,36.3686555 33.2643971,38.0433387 31.9704772,38.3136334 C28.9425095,38.9457512 23.5077673,39.818131 16.5694873,39.818131 C9.5114257,39.818131 4.22014282,38.9700634 1.26390488,38.3408059 C-0.0321042565,38.0647906 -0.446465051,36.3765212 0.566107378,35.5012812 C2.59334145,33.7479408 5.49665263,32.329251 9.53022863,31.6199061 C10.2134016,31.5004902 11.1730473,29.7471498 10.5929422,27.759268" id="Fill-1"></path>
                                <path d="M26.8418048,12.108846 C27.3049139,7.9078368 24.8403377,4.86594857 21.4878455,3.64390179 C20.1423916,3.15265186 14.5551367,2.15942601 12.4735831,0.0885966036 C11.7200732,-0.660076875 12.2361091,3.56023914 11.5543289,3.87486792 C7.98525481,5.52309367 5.42736036,8.1166359 6.5012164,12.6751778 C6.64119375,13.2722575 7.11057051,13.3308928 7.59526818,14.6580542 C7.25472628,15.0112965 6.57224968,15.5440202 6.57224968,16.3563345 C6.57224968,17.5926826 6.87797134,20.0939814 8.24571017,20.799751 C8.3696702,23.5169995 10.5932904,27.7594825 10.5932904,27.7594825 C13.0105111,30.0040728 14.7320235,30.9822823 15.6394388,30.9822823 C15.6791339,30.9822823 16.0712097,30.7455957 16.6812603,30.7455957 C17.3115065,30.7455957 17.7418846,30.9822823 17.7801869,30.9822823 C18.1144611,30.9822823 20.7531385,29.6465401 22.5324525,27.7594825 C22.5324525,27.7594825 24.7658224,23.5169995 24.889086,20.799751 C26.2616997,20.034631 26.5632429,17.5926826 26.5632429,16.3563345 C26.5632429,15.5440202 25.8800699,15.0112965 25.539528,14.6580542 C25.6230966,14.1946918 26.1161511,14.5522245 26.1161511,14.5522245 C26.1941484,14.1081689 26.6677036,13.6884255 26.8418048,12.108846 Z" id="Fill-4"></path>
                            </g>
                            <g id="Page-1-Copy" transform="translate(0.000000, 17.284271)" fill="#DEDFE0">
                                <path d="M16.6909635,20.595586 C16.314905,22.1150307 16.9803583,23.3824726 17.4838331,23.4599304 C20.5624577,23.9347569 22.7285343,25.0059018 24.2178086,26.3263969 C24.9585769,26.983196 24.6402941,28.2257029 23.6818349,28.4262441 C21.438896,28.8952348 17.413161,29.5424843 12.2736943,29.5424843 C7.04550052,29.5424843 3.12603172,28.9132729 0.93622584,28.4464044 C-0.0237809307,28.2416189 -0.330714852,26.9890319 0.419338798,26.3396602 C1.92099367,25.0387948 4.07159454,23.9862185 7.05942861,23.4599304 C7.56548269,23.3713315 8.27633134,22.070466 7.84662385,20.595586" id="Fill-1"></path>
                                <path d="M19.8828183,8.98398255 C20.2258621,5.86710472 18.4002501,3.61021991 15.9169226,2.70354004 C14.9202901,2.33906428 10.7815828,1.60215478 9.23969117,0.0657329639 C8.6815357,-0.489734455 9.0637845,2.64146775 8.55876213,2.874902 C5.91500356,4.09777918 4.02026693,6.02202018 4.81571585,9.40416421 C4.91940277,9.84715876 5.26708927,9.89066242 5.62612458,10.8753305 C5.37387132,11.1374135 4.8683331,11.5326602 4.8683331,12.135345 C4.8683331,13.0526355 5.09479359,14.9084378 6.10793346,15.4320733 C6.19975571,17.4480964 7.84688178,20.5957451 7.84688178,20.5957451 C9.63741563,22.2610863 10.91261,22.9868546 11.5847695,22.9868546 C11.6141733,22.9868546 11.9045998,22.8112484 12.3564891,22.8112484 C12.8233382,22.8112484 13.1421367,22.9868546 13.1705088,22.9868546 C13.4181193,22.9868546 15.3726952,21.9958201 16.6907056,20.5957451 C16.6907056,20.5957451 18.3450536,17.4480964 18.43636,15.4320733 C19.4531109,14.8644036 19.6764762,13.0526355 19.6764762,12.135345 C19.6764762,11.5326602 19.1704221,11.1374135 18.9181689,10.8753305 C18.9800715,10.5315456 19.3452971,10.7968117 19.3452971,10.7968117 C19.4030729,10.4673511 19.7538545,10.1559286 19.8828183,8.98398255 Z" id="Fill-4"></path>
                            </g>
                            <g id="Page-1-Copy" transform="translate(14.045411, 12.083694)" fill="#C1C2C3">
                                <path d="M22.5328007,27.759268 C22.0251217,29.8072153 22.9234837,31.5155066 23.6031747,31.6199061 C27.759318,32.2598897 30.6835213,33.7036067 32.6940416,35.4834045 C33.6940788,36.3686555 33.2643971,38.0433387 31.9704772,38.3136334 C28.9425095,38.9457512 23.5077673,39.818131 16.5694873,39.818131 C9.5114257,39.818131 4.22014282,38.9700634 1.26390488,38.3408059 C-0.0321042565,38.0647906 -0.446465051,36.3765212 0.566107378,35.5012812 C2.59334145,33.7479408 5.49665263,32.329251 9.53022863,31.6199061 C10.2134016,31.5004902 11.1730473,29.7471498 10.5929422,27.759268" id="Fill-1"></path>
                                <path d="M26.8418048,12.108846 C27.3049139,7.9078368 24.8403377,4.86594857 21.4878455,3.64390179 C20.1423916,3.15265186 14.5551367,2.15942601 12.4735831,0.0885966036 C11.7200732,-0.660076875 12.2361091,3.56023914 11.5543289,3.87486792 C7.98525481,5.52309367 5.42736036,8.1166359 6.5012164,12.6751778 C6.64119375,13.2722575 7.11057051,13.3308928 7.59526818,14.6580542 C7.25472628,15.0112965 6.57224968,15.5440202 6.57224968,16.3563345 C6.57224968,17.5926826 6.87797134,20.0939814 8.24571017,20.799751 C8.3696702,23.5169995 10.5932904,27.7594825 10.5932904,27.7594825 C13.0105111,30.0040728 14.7320235,30.9822823 15.6394388,30.9822823 C15.6791339,30.9822823 16.0712097,30.7455957 16.6812603,30.7455957 C17.3115065,30.7455957 17.7418846,30.9822823 17.7801869,30.9822823 C18.1144611,30.9822823 20.7531385,29.6465401 22.5324525,27.7594825 C22.5324525,27.7594825 24.7658224,23.5169995 24.889086,20.799751 C26.2616997,20.034631 26.5632429,17.5926826 26.5632429,16.3563345 C26.5632429,15.5440202 25.8800699,15.0112965 25.539528,14.6580542 C25.6230966,14.1946918 26.1161511,14.5522245 26.1161511,14.5522245 C26.1941484,14.1081689 26.6677036,13.6884255 26.8418048,12.108846 Z" id="Fill-4"></path>
                            </g>
                            <g id="Page-1-Copy-2" transform="translate(25.849496, 0.110101)" stroke="#FFFFFF" stroke-width="2" fill="#27B9E6">
                                <path d="M16.7347758,43.3571715 C17.6512283,46.462042 16.1351759,49.2005825 15.0558963,49.3870981 C8.68363553,50.4950231 4.096972,52.7108731 0.894338877,55.4494136 C-0.705327413,56.8164501 -0.0507184429,59.4533563 1.99672239,59.8844643 C6.66699983,60.867301 15.0261913,62.1918968 26.1765475,62.1918968 C37.1376721,62.1918968 45.7235014,60.8293277 50.5070977,59.8420236 C52.551238,59.4198505 53.230051,56.8041647 51.650188,55.4214921 C48.4739592,52.6416278 43.8542902,50.3866877 37.2883972,49.3870981 C36.2146185,49.2240365 34.7953822,46.5558582 35.5974157,43.3571715 C35.6257581,43.3031795 39.1259518,36.713766 39.3198854,32.4871091 C41.4883464,31.292069 41.9647257,27.4779924 41.9647257,25.5469417 C41.9647257,24.2781888 40.885446,23.4461282 40.3474565,22.8943994 C40.4794784,22.1706742 41.2584081,22.7291042 41.2584081,22.7291042 C41.3816286,22.0355342 42.1297531,21.3799374 42.4047989,18.9127939 C43.1364207,12.351242 39.2428726,7.60011994 33.9465909,5.69140637 C31.8210371,4.92412362 22.9942678,3.37280521 19.7058203,0.138378942 C18.5154222,-1.03097337 19.3306579,5.56073376 18.2535786,6.05215212 C12.61514,8.62651419 8.5741673,12.677365 10.2706497,19.7973469 C10.4917865,20.7299249 11.23331,20.8215074 11.9990374,22.8943994 C11.4610479,23.4461282 10.3828684,24.2781888 10.3828684,25.5469417 C10.3828684,27.4779924 10.8658488,31.3847684 13.0266085,32.4871091 C13.2216377,36.713766 16.7065595,43.3031795 16.735149,43.3571726 Z" id="Combined-Shape"></path>
                            </g>
                        </g>
                    </g>
                </g>
            </g>
        </g>
    </g>
</svg>