<?xml version="1.0" encoding="UTF-8" standalone="no"?>
<svg width="96px" height="58px" viewBox="0 0 96 58" version="1.1" xmlns="http://www.w3.org/2000/svg" xmlns:xlink="http://www.w3.org/1999/xlink">
    <!-- Generator: sketchtool 42 (36780) - http://www.bohemiancoding.com/sketch -->
    <title>P.B. icon</title>
    <desc>Created with sketchtool.</desc>
    <defs></defs>
    <g id="Landing-Page" stroke="none" stroke-width="1" fill="none" fill-rule="evenodd">
        <g id="Pro-Homepage-(Desktop-HD)" transform="translate(-315.000000, -781.000000)">
            <g id="How-it-works" transform="translate(0.000000, 591.000000)">
                <g id="Showcase" transform="translate(227.000000, 163.000000)">
                    <g id="Profile-icon" transform="translate(81.000000, 0.000000)">
                        <polygon id="Fill-1" fill="#27B9E6" points="17 58 93 58 93 32 17 32"></polygon>
                        <g id="Group-31" stroke-width="1" transform="translate(6.000000, 25.000000)">
                            <path d="M10.4070556,53.3388119 L87.3909556,53.3388119 L87.3909556,6.83048498 L10.4070556,6.83048498 L10.4070556,53.3388119 Z M87.0572111,3.42872965 L10.7408,3.42872965 C9.07398333,3.42872965 7.71015,4.79100856 7.71015,6.45559322 L7.71015,55.1627052 L90.0878611,55.1627052 L90.0878611,6.45559322 C90.0878611,4.79100856 88.7240278,3.42872965 87.0572111,3.42872965 L87.0572111,3.42872965 Z" id="Fill-6" fill="#F6F6F8"></path>
                            <path d="M11,53.0056152 L87,53.0056152 L87,7.00561523 L11,7.00561523 L11,53.0056152 Z M87.968052,3 L10.0471742,3 C8.38035755,3 7.01652422,4.33177039 7.01652422,5.95907633 L6.99584961,54 L90.9780273,54 L90.998702,5.95907633 C90.998702,4.33177039 89.6348686,3 87.968052,3 Z" id="Stroke-8" stroke="#535455" stroke-width="2" stroke-linecap="round" stroke-linejoin="round"></path>
                            <path d="M2.31386167,55.1627595 L95.484095,55.1627595 L95.4838228,55.519165 C95.4838228,56.7153388 94.5038228,57.6942984 93.3057728,57.6942984 L4.49191167,57.6942984 C3.29413389,57.6942984 2.31386167,56.7153388 2.31386167,55.519165 L2.31386167,55.1627595 Z" id="Fill-2" fill="#F6F6F8"></path>
                            <path d="M2.31386167,55.0007324 L95.484095,55.0007324 L95.4838228,55.8419564 C95.4838228,57.0381303 94.5038228,58.0170898 93.3057728,58.0170898 L4.49191167,58.0170898 C3.29413389,58.0170898 2.31386167,57.0381303 2.31386167,55.8419564 L2.31386167,55.0007324 Z" id="Stroke-4" stroke="#535455" stroke-width="2" stroke-linecap="round" stroke-linejoin="round"></path>
                            <path d="M69.394401,24 L80.605599,24 C80.8235213,24 81,23.8232509 81,23.605608 L81,12.3946664 C81,12.1767491 80.8235213,12 80.605599,12 L69.394401,12 C69.1764787,12 69,12.1767491 69,12.3946664 L69,23.605608 C69,23.8232509 69.1764787,24 69.394401,24" id="Fill-12" fill="#FFFFFF"></path>
                            <path d="M65.2316648,41 L80.7686005,41 C80.8965071,41 81,40.8996063 81,40.7758473 L81,38.2241527 C81,38.1003937 80.8965071,38 80.7686005,38 L65.2316648,38 C65.1037583,38 65,38.1003937 65,38.2241527 L65,40.7758473 C65,40.8996063 65.1037583,41 65.2316648,41" id="Fill-13" fill="#27A9E1"></path>
                            <path d="M15.2355798,40 L46.7644202,40 C46.8944883,40 47,39.8278292 47,39.6155878 L47,38.3844122 C47,38.1721708 46.8944883,38 46.7644202,38 L15.2355798,38 C15.1055117,38 15,38.1721708 15,38.3844122 L15,39.6155878 C15,39.8278292 15.1055117,40 15.2355798,40" id="Fill-15" fill="#C1C2C3"></path>
                            <path d="M15.2325916,44 L39.7674084,44 C39.8958267,44 40,43.8278292 40,43.6155878 L40,42.3844122 C40,42.1721708 39.8958267,42 39.7674084,42 L15.2325916,42 C15.1041733,42 15,42.1721708 15,42.3844122 L15,43.6155878 C15,43.8278292 15.1041733,44 15.2325916,44" id="Fill-17" fill="#C1C2C3"></path>
                            <path d="M15.2415457,48 L41.7584543,48 C41.8918163,48 42,47.8278292 42,47.6155878 L42,46.3844122 C42,46.1721708 41.8918163,46 41.7584543,46 L15.2415457,46 C15.1081837,46 15,46.1721708 15,46.3844122 L15,47.6155878 C15,47.8278292 15.1081837,48 15.2415457,48" id="Fill-19" fill="#C1C2C3"></path>
                            <path d="M22.495124,24.9958718 L15.504876,24.9958718 C15.2270828,24.9958718 15,24.7743078 15,24.5032656 L15,22.4926061 C15,22.2218359 15.2270828,22 15.504876,22 L22.495124,22 C22.7729172,22 23,22.2218359 23,22.4926061 L23,24.5032656 C23,24.7743078 22.7729172,24.9958718 22.495124,24.9958718" id="Fill-21" fill="#FFFFFF"></path>
                            <path d="M27.5075469,20 L15.4924531,20 C15.2214952,20 15,19.7700663 15,19.4887854 L15,18.5109324 C15,18.2299337 15.2214952,18 15.4924531,18 L27.5075469,18 C27.7782331,18 28,18.2299337 28,18.5109324 L28,19.4887854 C28,19.7700663 27.7782331,20 27.5075469,20" id="Fill-23" fill="#FFFFFF"></path>
                            <path d="M50.507943,15 L15.4917855,15 C15.221317,15 15,14.7781307 15,14.5067151 L15,12.4932849 C15,12.2221416 15.221317,12 15.4917855,12 L50.507943,12 C50.778683,12 51,12.2221416 51,12.4932849 L51,14.5067151 C51,14.7781307 50.778683,15 50.507943,15" id="Fill-25" fill="#FFFFFF"></path>
                            <path d="M32.495124,24.9958718 L25.504876,24.9958718 C25.2270828,24.9958718 25,24.7743078 25,24.5032656 L25,22.4926061 C25,22.2218359 25.2270828,22 25.504876,22 L32.495124,22 C32.7729172,22 33,22.2218359 33,22.4926061 L33,24.5032656 C33,24.7743078 32.7729172,24.9958718 32.495124,24.9958718" id="Fill-27" fill="#FFFFFF"></path>
                            <path d="M42.495124,25 L35.504876,25 C35.2270828,25 35,24.7781307 35,24.5067151 L35,22.4932849 C35,22.2221416 35.2270828,22 35.504876,22 L42.495124,22 C42.7729172,22 43,22.2221416 43,22.4932849 L43,24.5067151 C43,24.7781307 42.7729172,25 42.495124,25" id="Fill-29" fill="#FFFFFF"></path>
                        </g>
                    </g>
                </g>
            </g>
        </g>
    </g>
</svg>