<?xml version="1.0" encoding="UTF-8"?>
<svg width="57px" height="65px" viewBox="0 0 57 65" version="1.1" xmlns="http://www.w3.org/2000/svg" xmlns:xlink="http://www.w3.org/1999/xlink">
    <!-- Generator: sketchtool 49.3 (51167) - http://www.bohemiancoding.com/sketch -->
    <title>1672B154-ECCA-431C-8D0A-424F2E7719EE</title>
    <desc>Created with sketchtool.</desc>
    <defs>
        <path d="M32.5,1.80555556 C42.1418733,1.80555556 51.5147211,5.00773133 59.2325241,9.92216722 C59.4498967,10.0613923 59.5833333,10.3024386 59.5833333,10.5559528 L59.5833333,31.9072546 C59.5833333,40.4394634 54.8893767,48.6204926 47.0316804,53.7925987 L32.932593,63.0666483 C32.6721763,63.2370431 32.3278237,63.2370431 32.067407,63.0666483 L17.9683196,53.7925987 C10.1084711,48.6204926 5.41666667,40.4394634 5.41666667,31.9072546 L5.41666667,10.5559528 C5.41666667,10.3024386 5.5479511,10.0613923 5.7674759,9.92216722 C13.4852789,5.00773133 22.8581267,1.80555556 32.5,1.80555556 Z" id="path-1"></path>
    </defs>
    <g id="Welcome" stroke="none" stroke-width="1" fill="none" fill-rule="evenodd">
        <g id="pro-page-v4" transform="translate(-1067.000000, -771.000000)">
            <g id="how-it-works" transform="translate(235.000000, 680.000000)">
                <g id="icn-verified-16x16" transform="translate(828.000000, 91.000000)">
                    <rect id="16x16-border" x="0" y="0" width="65" height="65"></rect>
                    <path d="M32.5,1.80555556 C42.1418733,1.80555556 51.5147211,5.00773133 59.2325241,9.92216722 C59.4498967,10.0613923 59.5833333,10.3024386 59.5833333,10.5559528 L59.5833333,31.9072546 C59.5833333,40.4394634 54.8893767,48.6204926 47.0316804,53.7925987 L32.932593,63.0666483 C32.6721763,63.2370431 32.3278237,63.2370431 32.067407,63.0666483 L17.9683196,53.7925987 C10.1084711,48.6204926 5.41666667,40.4394634 5.41666667,31.9072546 L5.41666667,10.5559528 C5.41666667,10.3024386 5.5479511,10.0613923 5.7674759,9.92216722 C13.4852789,5.00773133 22.8581267,1.80555556 32.5,1.80555556 Z" id="Fill" fill="#27A9E1"></path>
                    <mask id="mask-2" fill="white">
                        <use xlink:href="#path-1"></use>
                    </mask>
                    <use id="Stroke" stroke="#1D79A1" stroke-width="2.03125" stroke-linecap="round" stroke-linejoin="round" xlink:href="#path-1"></use>
                    <g id="Checkmark" mask="url(#mask-2)">
                        <g transform="translate(13.541667, 13.993056)" id="Page-1">
                            <polygon fill-opacity="0.400000006" fill="#232F3A" points="33.8541667 3.22610294 13.5415322 22.5827718 6.77069891 16.1304635 0 22.5827718 13.5415322 35.4871324 40.625 9.6782832"></polygon>
                            <polygon fill="#FFFFFF" points="33.8541667 0 13.5415322 19.3566689 6.77069891 12.9043605 0 19.3566689 13.5415322 32.2610294 40.625 6.45218026"></polygon>
                        </g>
                    </g>
                </g>
            </g>
        </g>
    </g>
</svg>