<?xml version="1.0" encoding="UTF-8" standalone="no"?>
<svg width="103px" height="84px" viewBox="0 0 103 84" version="1.1" xmlns="http://www.w3.org/2000/svg" xmlns:xlink="http://www.w3.org/1999/xlink">
    <!-- Generator: Sketch 44.1 (41455) - http://www.bohemiancoding.com/sketch -->
    <title>Star icon Copy 12</title>
    <desc>Created with Sketch.</desc>
    <defs>
        <path d="M1190.18394,404.232544 C1179.7735,409.679019 1167.60247,400.853713 1169.5927,389.279955 L1186.45864,291.092126 C1187.24963,286.502967 1185.71868,281.812947 1182.37611,278.560192 L1110.9319,209.016783 C1102.51169,200.821856 1107.15557,186.550076 1118.79077,184.86066 L1217.53687,170.53845 C1222.15523,169.857641 1226.16121,166.957898 1228.22798,162.772181 L1272.3703,73.4348725 C1277.57552,62.9201512 1292.60432,62.9201512 1297.80954,73.4348725 L1341.97737,162.772181 C1344.04415,166.957898 1348.05013,169.857641 1352.66849,170.53845 L1451.38907,184.86066 C1463.02427,186.550076 1467.66815,200.821856 1459.24794,209.016783 L1387.80373,278.560192 C1384.46116,281.812947 1382.93021,286.502967 1383.7212,291.092126 L1400.58714,389.279955 C1402.57737,400.853713 1390.43185,409.679019 1380.02141,404.232544 L1291.68575,357.861867 C1287.55219,355.693363 1282.62765,355.693363 1278.49409,357.861867 L1190.18394,404.232544 Z" id="path-1"></path>
    </defs>
    <g id="Landing-Page" stroke="none" stroke-width="1" fill="none" fill-rule="evenodd">
        <g id="Pro-Homepage-(Desktop-HD)" transform="translate(-1232.000000, 0.000000)">
            <g id="Hero" transform="translate(0.000000, -352.000000)">
                <mask id="mask-2" fill="white">
                    <use xlink:href="#path-1"></use>
                </mask>
                <use id="Star-icon-Copy-12" fill="#FAD04F" transform="translate(1285.089920, 235.715657) rotate(-29.000000) translate(-1285.089920, -235.715657) " xlink:href="#path-1"></use>
            </g>
            <g id="Navigation---Logged-Out"></g>
        </g>
    </g>
</svg>